<?xml version="1.0" encoding="UTF-8"?>
<svg id="Layer_2" data-name="Layer 2" xmlns="http://www.w3.org/2000/svg" version="1.1" viewBox="0 0 111.7 62.9">
  <defs>
    <style>
      .cls-1 {
        fill: #221f1f;
      }

      .cls-1, .cls-2 {
        stroke-width: 0px;
      }

      .cls-3 {
        fill: none;
        stroke: #221f1f;
        stroke-linecap: round;
        stroke-miterlimit: 10;
        stroke-width: .2px;
      }

      .cls-2 {
        fill: #fff;
      }
    </style>
  </defs>
  <g>
    <path class="cls-3" d="M60.7,47.6v5.7c0,1.1-.9,2-2,2H11.7c-1.1,0-2-.9-2-2v-26c0-1.1.9-2,2-2h18.5"/>
    <line class="cls-3" x1="30.3" y1="28.3" x2="9.8" y2="28.3"/>
    <g>
      <path class="cls-2" d="M30.3,34.8v5.7h-3.5v-6.7c1.3,0,2.5.4,3.5,1Z"/>
      <path class="cls-1" d="M30.3,46.1c-1.2,1.3-2.9,2.1-4.9,2.1-3.7,0-6.7-3-6.7-6.7s3-6.7,6.7-6.7v6.7h4.8v4.5h0Z"/>
    </g>
  </g>
  <g>
    <path class="cls-3" d="M30.3,18.9v26.7c0,.2,0,.7.4,1.2.6.8,1.3.9,1.8.9h28.3M51.8,43.7"/>
    <path class="cls-3" d="M84.6,36.2v9.4c0,1.2-.9,2.1-2.1,2.1h-21.8"/>
    <path class="cls-3" d="M50.9,18.9h-20.6v-1c0-1.2.9-2.1,2.1-2.1h18.5"/>
    <line class="cls-3" x1="30.3" y1="18.9" x2="30.3" y2="18.9"/>
  </g>
  <g>
    <polygon class="cls-2" points="49.8 21.9 47.6 25.4 47 26.3 45.5 25.4 39.6 21.9 49.8 21.9"/>
    <polygon class="cls-2" points="43.5 31.8 39 39.1 39 28.8 43.5 31.8"/>
    <polygon class="cls-2" points="46.8 26.6 45.7 28.3 43.7 31.5 39 28.3 39 28.3 39 22 44.8 25.4 46.8 26.6"/>
    <path class="cls-2" d="M48.3,37.7l-4.5,2.8c-1,.6-2.1,1-3.3,1h-1.5v-1l5.1-8.1c1.3,1,2.4,2.2,3.3,3.6l1,1.6h0Z"/>
    <path class="cls-2" d="M51.8,43.7h-12.8v-1.3h1.5c1.3,0,2.6-.5,3.7-1.2l4.5-2.8,3.1,5.3Z"/>
    <path class="cls-2" d="M48.5,25.4l1.2-1.9,1.3.8v9.9c0,.5.2,1,.6,1.4l-2.6,1.6-1-1.6c-.9-1.5-2.1-2.8-3.5-3.9l4-6.3Z"/>
    <polygon class="cls-2" points="51 21.9 51 23.9 49.9 23.2 50.7 21.9 51 21.9"/>
    <path class="cls-2" d="M69.1,43.7h-16.3l-3.4-5.7,3-1.9h10.4l1.4.6c1.8.8,3.3,2.4,4,4.2l1,2.6v.2Z"/>
    <path class="cls-2" d="M75.9,36.2v7.5h-6.4l-1-2.8c-.7-2-2.2-3.6-4.2-4.5l-.6-.3h12.2Z"/>
  </g>
  <g>
    <g>
      <path class="cls-3" d="M101.9,9.2v25c0,1.1-.9,2-2,2h-47c-.8,0-1.2-.3-1.4-.6-.4-.4-.6-.9-.6-1.4V9.2"/>
      <path class="cls-3" d="M101.9,8.3v1h-51v-1c0-1.1,1-2,2.1-2h47c1.1,0,1.9.9,1.9,2h0Z"/>
      <line class="cls-3" x1="101.9" y1="9.2" x2="101.9" y2="9.2"/>
      <path class="cls-3" d="M51,9.2"/>
      <g>
        <line class="cls-3" x1="98.9" y1="7.1" x2="100.3" y2="8.5"/>
        <line class="cls-3" x1="100.3" y1="7.1" x2="98.9" y2="8.5"/>
      </g>
    </g>
    <g>
      <rect class="cls-1" x="55.9" y="15.4" width="2" height="16.8"/>
      <rect class="cls-2" x="59.8" y="13.5" width="2" height="18.6"/>
      <rect class="cls-1" x="63.7" y="18.4" width="2" height="13.8"/>
      <rect class="cls-1" x="67.6" y="21.9" width="2" height="10.2"/>
      <rect class="cls-2" x="71.5" y="12" width="2" height="20.1"/>
      <rect class="cls-1" x="75.4" y="15.4" width="2" height="16.8"/>
      <rect class="cls-1" x="79.3" y="17" width="2" height="15.1"/>
      <rect class="cls-1" x="83.2" y="15.4" width="2" height="16.8"/>
      <rect class="cls-2" x="87.1" y="14.5" width="2" height="17.6"/>
      <rect class="cls-2" x="91" y="19.3" width="2" height="12.8"/>
      <rect class="cls-1" x="94.9" y="22.1" width="2" height="10.1"/>
    </g>
  </g>
</svg>