<svg id="Layer_1" data-name="Layer 1" xmlns="http://www.w3.org/2000/svg" xmlns:xlink="http://www.w3.org/1999/xlink" viewBox="0 0 100 100">
  <defs>
    <style>
      .cls-1, .cls-2, .cls-3 {
        fill: none;
      }

      .cls-4 {
        clip-path: url(#clippath);
      }

      .cls-5 {
        fill: none;
      }

      .cls-2 {
        stroke-linecap: round;
      }

      .cls-2, .cls-3 {
        stroke: #333;
        stroke-miterlimit: 10;
      }

      .cls-6 {
        clip-path: url(#clippath-1);
      }
    </style>
    <clipPath id="clippath">
      <rect class="cls-1" x="26.72" y="19.24" width="47.57" height="47.57"/>
    </clipPath>
    <clipPath id="clippath-1">
      <rect class="cls-1" x="24.14" width="51.44" height="51.44"/>
    </clipPath>
  </defs>
  <rect class="cls-5" x="-15.64" y="-20.94" width="131" height="150"/>
  <g>
    <g class="cls-4">
      <g>
        <path class="cls-3" d="M32.73,46.82h35.56"/>
        <path class="cls-3" d="M32.73,43.02h6.94"/>
        <path class="cls-3" d="M61.35,43.02h6.94"/>
        <path class="cls-3" d="M47.14,43.02h6.94"/>
      </g>
    </g>
    <g class="cls-6">
      <g>
        <path class="cls-3" d="M57.64,36.51h-15.55"/>
        <path class="cls-3" d="M34.8,36.51h-3.46c-.65,0-1.27-.26-1.73-.71-.46-.46-.72-1.08-.72-1.73v-13.22c.02-.64,.28-1.25,.74-1.69,.46-.45,1.07-.7,1.71-.7h37.05c.65,0,1.27,.26,1.73,.72,.46,.46,.72,1.08,.72,1.73v13.17c0,.65-.26,1.27-.72,1.73-.46,.46-1.08,.71-1.73,.71h-3.46"/>
        <path class="cls-3" d="M38.43,32.92c.72,0,1.43,.17,2.04,.57,.6,.4,1.06,.97,1.34,1.63,.29,.68,.36,1.43,.2,2.14-.14,.71-.49,1.36-1,1.86-.51,.51-1.16,.86-1.87,1-.71,.14-1.44,.06-2.11-.21-.67-.27-1.23-.74-1.63-1.34-.36-.55-.57-1.18-.61-1.84-.03-.66,.12-1.31,.43-1.89,.31-.58,.77-1.06,1.34-1.4,.56-.34,1.21-.52,1.87-.52h0Z"/>
        <path class="cls-2" d="M61.33,32.92c.04-.06,1.37,.15,1.97,.54,.63,.39,1.11,.98,1.39,1.66,.29,.68,.36,1.42,.21,2.14-.14,.71-.49,1.36-1,1.87-.51,.51-1.16,.86-1.87,.99-.5,.09-1.01,.08-1.5-.03-.49-.11-.95-.33-1.36-.63-.4-.3-.74-.69-.99-1.13-.25-.44-.4-.93-.45-1.43-.05-.5,0-1.01,.16-1.49,.16-.48,.41-.92,.75-1.3,.34-.38,.75-.68,1.21-.88,.46-.21,.96-.32,1.46-.32h0Z"/>
        <path class="cls-2" d="M50.5,18.4l-7.14-7.15"/>
        <path class="cls-2" d="M54.75,18.4l-7.15-7.15"/>
        <path class="cls-3" d="M28.88,27.45h41.96"/>
        <path class="cls-3" d="M61.29,18.4v9.06"/>
        <path class="cls-3" d="M49.87,18.4v9.06"/>
        <path class="cls-3" d="M38.43,18.4v9.06"/>
      </g>
    </g>
  </g>
</svg>
