<svg id="Layer_1" data-name="Layer 1" xmlns="http://www.w3.org/2000/svg" viewBox="0 0 100 100">
  <defs>
    <style>
      .cls-1 {
        fill: #fff;
      }

      .cls-2 {
        stroke-linecap: round;
      }

      .cls-2, .cls-3 {
        fill: none;
        stroke: #333;
        stroke-miterlimit: 10;
      }
    </style>
  </defs>

  <g>
    <path class="cls-3" d="M65.44,44.88h-27.07v3.18h27.07v-3.18Z"/>
    <path class="cls-3" d="M54.41,29.11h11.36v-2.38l-10.96-3.68"/>
    <path class="cls-3" d="M50.13,35.54v6.27l-1.24,3.07h6.01l-1.23-3.07v-10.67"/>
    <path class="cls-3" d="M41.56,37.43v4.38l-1.24,3.07h6.01l-1.23-3.07v-3.42"/>
    <path class="cls-3" d="M44.33,12c3.54-.02,7.05,.51,10.42,1.56l.06,12.43c.01,2.01-.48,3.99-1.44,5.76-.96,1.77-2.34,3.26-4.04,4.35l-2.59,1.7c-.69,.44-1.49,.68-2.31,.67-.8,0-1.59-.23-2.27-.66l-2.65-1.68c-1.7-1.07-3.1-2.56-4.07-4.32-.97-1.76-1.49-3.74-1.49-5.75V13.64c3.36-1.08,6.85-1.63,10.37-1.64h0Z"/>
    <path class="cls-2" d="M40.65,29.67c1.05,.87,2.38,1.35,3.75,1.35s2.69-.48,3.75-1.35"/>
    <path class="cls-2" d="M42.71,22.47c-1.38-1.81-3.37-1.81-4.75,0"/>
    <path class="cls-2" d="M50.83,22.47c-1.38-1.81-3.37-1.81-4.75,0"/>
  </g>
  <line class="cls-3" x1="57.46" y1="44.88" x2="58.7" y2="41.81"/>
  <line class="cls-3" x1="62.25" y1="41.81" x2="63.49" y2="44.88"/>
  <line class="cls-2" x1="58.7" y1="29.53" x2="58.7" y2="41.81"/>
  <line class="cls-2" x1="62.25" y1="29.31" x2="62.25" y2="41.81"/>
</svg>
