<svg id="Layer_1" data-name="Layer 1" xmlns="http://www.w3.org/2000/svg" xmlns:xlink="http://www.w3.org/1999/xlink" viewBox="0 0 100 60">
  <defs>
    <style>
      .cls-1, .cls-2, .cls-3 {
        fill: none;
      }

      .cls-4 {
        clip-path: url(#clippath);
      }

      .cls-5 {
        fill: #fff;
      }

      .cls-2 {
        stroke-miterlimit: 10;
      }

      .cls-2, .cls-3 {
        stroke: #333;
      }
    </style>
    <clipPath id="clippath">
      <rect class="cls-1" x="19.49" y="-2.44" width="60.75" height="60.75"/>
    </clipPath>
  </defs>
  
  <g>
    <g>
      <line class="cls-2" x1="34.73" y1="15.78" x2="56.75" y2="37.8"/>
      <line class="cls-2" x1="34" y1="38.77" x2="46.29" y2="27.34"/>
      <line class="cls-2" x1="36.88" y1="26.18" x2="41.92" y2="31.41"/>
      <line class="cls-2" x1="40.85" y1="39.26" x2="37.24" y2="35.77"/>
      <line class="cls-2" x1="40.67" y1="21.71" x2="45.25" y2="17.13"/>
      <line class="cls-2" x1="48.56" y1="22.06" x2="58.28" y2="31.85"/>
      <line class="cls-2" x1="54.41" y1="35.29" x2="63.11" y2="26.85"/>
      <line class="cls-2" x1="54.29" y1="27.83" x2="61.26" y2="21.14"/>
      <line class="cls-2" x1="50.13" y1="23.4" x2="57.85" y2="15.81"/>
      <line class="cls-2" x1="45.74" y1="38.16" x2="51.37" y2="32.41"/>
      <line class="cls-2" x1="60.63" y1="29.45" x2="63.84" y2="32.54"/>
      <line class="cls-2" x1="59.55" y1="22.89" x2="57.43" y2="20.85"/>
      <g>
        <path class="cls-3" d="M78.22,36.99v-2.15h-1.17c-.15-.88-.5-1.71-1.01-2.44l.83-.83-1.52-1.53-.83,.83c-.73-.51-1.56-.86-2.44-1.01v-1.17h-2.15v1.17c-.88,.15-1.71,.5-2.44,1.01l-.83-.84-1.53,1.53,.83,.83c-.51,.73-.86,1.56-1.01,2.44h-1.17v2.15h1.17c.15,.88,.5,1.71,1.01,2.44l-.83,.83,1.53,1.52,.83-.83c.73,.51,1.56,.86,2.44,1.01v1.17h2.15v-1.17c.88-.15,1.71-.5,2.44-1.01l.83,.83,1.53-1.52-.83-.83c.51-.73,.86-1.56,1.01-2.44h1.17Z"/>
        <path class="cls-3" d="M71,37.72c.99,0,1.8-.81,1.8-1.8s-.81-1.8-1.8-1.8-1.8,.81-1.8,1.8,.81,1.8,1.8,1.8Z"/>
      </g>
    </g>
    <g class="cls-4">
      <path class="cls-2" d="M68.48,30.08V14.05l-12.42-3.47-12.43,3.47-12.39-3.47v31.24l12.42,3.47,12.4-3.47,12.42,3.47v-3.76"/>
    </g>
  </g>
</svg>
