<svg id="Layer_1" data-name="Layer 1" xmlns="http://www.w3.org/2000/svg" xmlns:xlink="http://www.w3.org/1999/xlink" viewBox="0 0 100 100">
  <defs>
    <style>
      .cls-1, .cls-2, .cls-3 {
        fill: none;
      }

      .cls-4 {
        clip-path: url(#clippath);
      }

      .cls-5 {
        fill: #fff;
      }

      .cls-6 {
        fill: #D9DBEE;
      }

      .cls-2 {
        stroke-linecap: round;
      }

      .cls-2, .cls-3 {
        stroke: #333;
        stroke-miterlimit: 10;
      }
    </style>
    <clipPath id="clippath">
      <rect class="cls-1" x="22.21" y="1" width="55.3" height="55.31"/>
    </clipPath>
  </defs>
 
  <g>
    <polygon class="cls-6" points="52.59 40.91 50.47 41.46 34.09 41.28 33.21 40.76 32.51 40.05 32.51 15.78 33.5 15.78 34.97 16.42 56.27 16.2 56.27 25.39 52.81 25.86 51.2 27.79 51.01 36.38 51.46 38.58 52.65 40.34 52.59 40.91"/>
    <g class="cls-4">
      <g>
        <path class="cls-3" d="M59.95,40.89h.13c.78,0,1.55,.15,2.26,.45s1.37,.73,1.92,1.28c.55,.55,.99,1.2,1.28,1.92,.3,.72,.45,1.49,.45,2.26h-18.78c0-1.57,.62-3.07,1.73-4.18,1.11-1.11,2.61-1.73,4.18-1.73h.14"/>
        <path class="cls-3" d="M56.27,25.39v-9.19"/>
        <path class="cls-3" d="M32.51,13.49v25.33c0,.08,0,.17,0,.25h0c0,.64,.25,1.25,.7,1.7,.45,.45,1.06,.7,1.7,.7h15.56"/>
        <path class="cls-2" d="M39.87,20.87h9.72"/>
        <path class="cls-2" d="M37.65,23.88h14.27"/>
        <path class="cls-3" d="M55.51,13.49c-.05-.92,.19-1.83,.7-2.61,.14-.17,0-.38-.27-.38h-20.34c-1.71,0-3.12,1.04-3.12,2.31v1.34c0,1.27,1.41,2.3,3.12,2.3h20.34c.26,0,.41-.2,.27-.37-.5-.77-.75-1.69-.7-2.61h0Z"/>
        <path class="cls-2" d="M46.35,27.05h-3.22"/>
        <path class="cls-3" d="M62.21,31.72v4.66c0,1.49-.59,2.91-1.64,3.96-1.05,1.05-2.47,1.64-3.96,1.64s-2.91-.59-3.96-1.64c-1.05-1.05-1.64-2.47-1.64-3.96v-4.66"/>
        <path class="cls-3" d="M50.99,31.72v-2.75c0-.95,.38-1.86,1.04-2.53,.67-.67,1.58-1.05,2.52-1.05h4.06c.95,0,1.86,.38,2.53,1.05s1.05,1.58,1.05,2.53v2.75h-11.21Z"/>
        <path class="cls-3" d="M58.96,31.72h8.29"/>
        <path class="cls-2" d="M54.83,37.31v-3.22"/>
        <path class="cls-2" d="M58.37,37.31v-3.22"/>
      </g>
    </g>
  </g>
</svg>
