<svg id="Layer_1" data-name="Layer 1" xmlns="http://www.w3.org/2000/svg" viewBox="0 0 100 60">
  <defs>
    <style>
      .cls-1, .cls-2 {
        fill: none;
      }

      .cls-3 {
        fill: #fff;
      }

      .cls-2 {
        stroke: #333;
        stroke-miterlimit: 10;
      }
    </style>
  </defs>
 
  <g>
    <path class="cls-2" d="M49.45,33.16h14.49c.22,0,.43,.09,.59,.24,.16,.16,.25,.37,.25,.59v5.33h-16.2v-5.33c0-.11,.02-.22,.07-.33,.04-.1,.11-.2,.19-.28,.08-.08,.18-.14,.28-.18,.11-.04,.22-.06,.33-.05Z"/>
    <path class="cls-2" d="M46.99,39.33h19.42c.17,0,.33,.07,.45,.19,.12,.12,.18,.28,.18,.45v.9c0,.15-.05,.29-.16,.39-.11,.1-.25,.16-.39,.16h-19.58c-.14,0-.28-.06-.38-.17-.1-.1-.16-.24-.16-.39v-.89c0-.08,.01-.17,.04-.24,.03-.08,.07-.15,.13-.21,.06-.06,.13-.11,.2-.14,.08-.03,.16-.05,.24-.05h0Z"/>
    <path class="cls-2" d="M47.47,41.41v5.87"/>
    <path class="cls-2" d="M65.93,41.41v5.87"/>
    <path class="cls-2" d="M63.66,41.41v5.87"/>
    <path class="cls-2" d="M49.73,41.41v5.87"/>
    <path class="cls-2" d="M43.81,30.31v16.97"/>
    <rect class="cls-1" x="26.23" y="5.54" width="47.26" height="47.26"/>
    <path class="cls-2" d="M40.07,30.53c1.08,.36,2.24,.45,3.37,.26,1.13-.19,2.19-.66,3.1-1.36l.06,.04c2.82,1.56,5.91,1.14,7-.93,.74-1.43,.26-3.28-1.03-4.79,2.39-1.04,3.69-3.65,2.82-5.91-.45-1.08-1.3-1.93-2.38-2.38-1.08-.45-2.28-.45-3.37-.01-.68-1.27-1.68-2.33-2.89-3.1-3.33-2.1-7.3-1.55-8.93,1.25-.59,1.06-.81,2.28-.62,3.48,0,0-4.52,.68-4.52,4.83,0,4.68,4.23,4.58,4.23,4.58,0,0,.34,3.1,3.16,4.05Z"/>
  </g>
</svg>
